<svg width="219" height="32" viewBox="0 0 219 32" fill="none" xmlns="http://www.w3.org/2000/svg">
<rect x="5" y="5" width="19.8625" height="25.6667" rx="1" fill="#FF916F"/>
<rect y="1" width="20.966" height="25.6667" rx="1" fill="#FF6320"/>
<path d="M50.988 23H54.6L51.471 17.603C53.088 16.784 54.18 15.146 54.18 13.34C54.18 10.547 51.933 8.3 49.14 8.3H43.26V23H46.62V18.17H48.216L50.988 23ZM46.62 11.45H49.14C50.064 11.45 50.82 12.269 50.82 13.34C50.82 14.411 50.064 15.23 49.14 15.23H46.62V11.45ZM58.3557 19.01H65.8107C65.8947 18.611 65.9367 18.191 65.9367 17.75C65.9367 14.579 63.6687 12.206 60.6027 12.206C57.2847 12.206 55.0167 14.621 55.0167 17.75C55.0167 20.879 57.2427 23.294 60.8337 23.294C62.8287 23.294 64.3827 22.559 65.4117 21.131L62.8917 19.682C62.4717 20.144 61.7367 20.48 60.8757 20.48C59.7207 20.48 58.7547 20.102 58.3557 19.01ZM58.2927 16.658C58.5867 15.587 59.3847 14.999 60.5817 14.999C61.5267 14.999 62.4717 15.44 62.8077 16.658H58.2927ZM70.2952 15.566C70.2952 15.188 70.6312 14.978 71.1772 14.978C71.8702 14.978 72.2902 15.356 72.5842 15.902L75.2722 14.453C74.3902 12.962 72.8782 12.206 71.1772 12.206C68.9932 12.206 67.0612 13.361 67.0612 15.65C67.0612 19.283 72.2272 18.674 72.2272 19.829C72.2272 20.249 71.8492 20.48 71.0932 20.48C70.1692 20.48 69.5812 20.039 69.3082 19.241L66.5782 20.795C67.3972 22.496 68.9932 23.294 71.0932 23.294C73.3612 23.294 75.4612 22.265 75.4612 19.85C75.4612 15.965 70.2952 16.763 70.2952 15.566ZM83.8169 12.5V18.233C83.8169 19.724 83.0189 20.396 81.8639 20.396C80.8559 20.396 80.0369 19.787 80.0369 18.485V12.5H76.8869V18.947C76.8869 21.782 78.6929 23.294 80.8139 23.294C82.1999 23.294 83.2499 22.79 83.8169 22.013V23H86.9669V12.5H83.8169ZM101.037 12.206C99.5461 12.206 98.5801 12.752 97.9921 13.592C97.4041 12.71 96.4801 12.206 95.2411 12.206C93.8341 12.206 92.9101 12.752 92.4271 13.466V12.5H89.2771V23H92.4271V17.078C92.4271 15.839 93.0151 15.104 94.0651 15.104C95.0731 15.104 95.5771 15.776 95.5771 16.826V23H98.7271V17.078C98.7271 15.839 99.3151 15.104 100.365 15.104C101.373 15.104 101.877 15.776 101.877 16.826V23H105.027V16.553C105.027 13.928 103.452 12.206 101.037 12.206ZM109.994 19.01H117.449C117.533 18.611 117.575 18.191 117.575 17.75C117.575 14.579 115.307 12.206 112.241 12.206C108.923 12.206 106.655 14.621 106.655 17.75C106.655 20.879 108.881 23.294 112.472 23.294C114.467 23.294 116.021 22.559 117.05 21.131L114.53 19.682C114.11 20.144 113.375 20.48 112.514 20.48C111.359 20.48 110.393 20.102 109.994 19.01ZM109.931 16.658C110.225 15.587 111.023 14.999 112.22 14.999C113.165 14.999 114.11 15.44 114.446 16.658H109.931ZM133.831 15.377C134.629 14.684 135.112 13.718 135.112 12.5C135.112 9.959 133.033 8.3 130.471 8.3H124.717V23H130.891C133.516 23 135.637 21.299 135.637 18.695C135.637 17.204 134.923 16.07 133.831 15.377ZM130.471 11.45C131.248 11.45 131.752 11.996 131.752 12.752C131.752 13.508 131.227 14.054 130.471 14.054H128.077V11.45H130.471ZM130.891 19.85H128.077V17.036H130.891C131.731 17.036 132.277 17.624 132.277 18.443C132.277 19.262 131.731 19.85 130.891 19.85ZM144.192 12.5V18.233C144.192 19.724 143.394 20.396 142.239 20.396C141.231 20.396 140.412 19.787 140.412 18.485V12.5H137.262V18.947C137.262 21.782 139.068 23.294 141.189 23.294C142.575 23.294 143.625 22.79 144.192 22.013V23H147.342V12.5H144.192ZM151.227 11.576C152.256 11.576 153.117 10.715 153.117 9.686C153.117 8.657 152.256 7.796 151.227 7.796C150.198 7.796 149.337 8.657 149.337 9.686C149.337 10.715 150.198 11.576 151.227 11.576ZM149.652 23H152.802V12.5H149.652V23ZM155.107 23H158.257V7.67H155.107V23ZM168.185 8.3V13.487C167.492 12.689 166.463 12.206 165.056 12.206C162.305 12.206 160.037 14.621 160.037 17.75C160.037 20.879 162.305 23.294 165.056 23.294C166.463 23.294 167.492 22.811 168.185 22.013V23H171.335V8.3H168.185ZM165.686 20.312C164.237 20.312 163.187 19.325 163.187 17.75C163.187 16.175 164.237 15.188 165.686 15.188C167.135 15.188 168.185 16.175 168.185 17.75C168.185 19.325 167.135 20.312 165.686 20.312ZM176.46 19.01H183.915C183.999 18.611 184.041 18.191 184.041 17.75C184.041 14.579 181.773 12.206 178.707 12.206C175.389 12.206 173.121 14.621 173.121 17.75C173.121 20.879 175.347 23.294 178.938 23.294C180.933 23.294 182.487 22.559 183.516 21.131L180.996 19.682C180.576 20.144 179.841 20.48 178.98 20.48C177.825 20.48 176.859 20.102 176.46 19.01ZM176.397 16.658C176.691 15.587 177.489 14.999 178.686 14.999C179.631 14.999 180.576 15.44 180.912 16.658H176.397ZM188.978 14.369V12.5H185.828V23H188.978V18.254C188.978 16.175 190.826 15.65 192.128 15.86V12.29C190.805 12.29 189.398 12.962 188.978 14.369Z" fill="#0D0D0D"/>
</svg>
